<svg xmlns="http://www.w3.org/2000/svg" viewBox="0 0 100 100" width="100" height="100" fill="none">
  <!-- Hintergrund -->
  <rect width="100" height="100" rx="15" fill="#68217A" />
  
  <!-- "C" -->
  <path d="M50 20C35.88 20 25 30.88 25 45C25 59.12 35.88 70 50 70C60 70 70 62 70 50H60C60 57.18 55.18 65 50 65C39.85 65 30 57.15 30 45C30 32.85 39.85 25 50 25C55.18 25 60 32.82 60 40H70C70 28 60 20 50 20Z" fill="white" />
  
  <!-- "#" -->
  <path d="M55 30H60V35H67V40H60V45H67V50H60V55H55V50H47V55H42V50H35V45H42V40H35V35H42V30H47V35H55V30ZM47 40V45H55V40H47Z" fill="white" />
</svg>
